<svg id="wave" style="transform:rotate(0deg); transition: 0.3s" viewBox="0 0 1440 100" version="1.1" xmlns="http://www.w3.org/2000/svg"><defs><linearGradient id="sw-gradient-0" x1="0" x2="0" y1="1" y2="0"><stop stop-color="rgba(59.375, 120.63, 223.481, 1)" offset="0%"></stop><stop stop-color="rgba(184.898, 207.071, 225.758, 1)" offset="100%"></stop></linearGradient></defs><path style="transform:translate(0, 0px); opacity:1" fill="url(#sw-gradient-0)" d="M0,70L26.7,65C53.3,60,107,50,160,43.3C213.3,37,267,33,320,40C373.3,47,427,63,480,60C533.3,57,587,33,640,21.7C693.3,10,747,10,800,15C853.3,20,907,30,960,28.3C1013.3,27,1067,13,1120,8.3C1173.3,3,1227,7,1280,18.3C1333.3,30,1387,50,1440,51.7C1493.3,53,1547,37,1600,31.7C1653.3,27,1707,33,1760,38.3C1813.3,43,1867,47,1920,48.3C1973.3,50,2027,50,2080,51.7C2133.3,53,2187,57,2240,48.3C2293.3,40,2347,20,2400,15C2453.3,10,2507,20,2560,21.7C2613.3,23,2667,17,2720,26.7C2773.3,37,2827,63,2880,61.7C2933.3,60,2987,30,3040,20C3093.3,10,3147,20,3200,30C3253.3,40,3307,50,3360,58.3C3413.3,67,3467,73,3520,63.3C3573.3,53,3627,27,3680,25C3733.3,23,3787,47,3813,58.3L3840,70L3840,100L3813.3,100C3786.7,100,3733,100,3680,100C3626.7,100,3573,100,3520,100C3466.7,100,3413,100,3360,100C3306.7,100,3253,100,3200,100C3146.7,100,3093,100,3040,100C2986.7,100,2933,100,2880,100C2826.7,100,2773,100,2720,100C2666.7,100,2613,100,2560,100C2506.7,100,2453,100,2400,100C2346.7,100,2293,100,2240,100C2186.7,100,2133,100,2080,100C2026.7,100,1973,100,1920,100C1866.7,100,1813,100,1760,100C1706.7,100,1653,100,1600,100C1546.7,100,1493,100,1440,100C1386.7,100,1333,100,1280,100C1226.7,100,1173,100,1120,100C1066.7,100,1013,100,960,100C906.7,100,853,100,800,100C746.7,100,693,100,640,100C586.7,100,533,100,480,100C426.7,100,373,100,320,100C266.7,100,213,100,160,100C106.7,100,53,100,27,100L0,100Z"></path></svg>
